<?xml version="1.0" encoding="UTF-8" standalone="no"?>
<!-- Created with Inkscape (http://www.inkscape.org/) -->

<svg
   width="180mm"
   height="120mm"
   viewBox="0 0 180 120"
   version="1.1"
   id="svg1"
   sodipodi:docname="enema_full_cropped.svg"
   xml:space="preserve"
   inkscape:version="1.4.2 (2aeb623e1d, 2025-05-12)"
   xmlns:inkscape="http://www.inkscape.org/namespaces/inkscape"
   xmlns:sodipodi="http://sodipodi.sourceforge.net/DTD/sodipodi-0.dtd"
   xmlns="http://www.w3.org/2000/svg"
   xmlns:svg="http://www.w3.org/2000/svg"><sodipodi:namedview
     id="namedview1"
     pagecolor="#ffffff"
     bordercolor="#000000"
     borderopacity="0.25"
     inkscape:showpageshadow="2"
     inkscape:pageopacity="0.0"
     inkscape:pagecheckerboard="0"
     inkscape:deskcolor="#d1d1d1"
     inkscape:document-units="mm"
     inkscape:zoom="0.30071465"
     inkscape:cx="1114.0129"
     inkscape:cy="352.49363"
     inkscape:window-width="1920"
     inkscape:window-height="1017"
     inkscape:window-x="0"
     inkscape:window-y="0"
     inkscape:window-maximized="1"
     inkscape:current-layer="layer1" /><defs
     id="defs1"><clipPath
       clipPathUnits="userSpaceOnUse"
       id="clipPath3"><path
         d="M 0,1350 H 1080 V 0 H 0 Z"
         transform="translate(-716.50632,-683.21642)"
         id="path3" /></clipPath><clipPath
       clipPathUnits="userSpaceOnUse"
       id="clipPath5"><path
         d="M 0,1350 H 1080 V 0 H 0 Z"
         transform="translate(-602.59781,-724.81242)"
         id="path5" /></clipPath><clipPath
       clipPathUnits="userSpaceOnUse"
       id="clipPath7"><path
         d="M 0,1350 H 1080 V 0 H 0 Z"
         transform="translate(-402.31111,-521.67001)"
         id="path7" /></clipPath><clipPath
       clipPathUnits="userSpaceOnUse"
       id="clipPath9"><path
         d="M 0,1350 H 1080 V 0 H 0 Z"
         transform="translate(-511.95352,-851.13862)"
         id="path9" /></clipPath><clipPath
       clipPathUnits="userSpaceOnUse"
       id="clipPath11"><path
         d="M 0,1350 H 1080 V 0 H 0 Z"
         transform="translate(-455.21881,-694.77472)"
         id="path11" /></clipPath><clipPath
       clipPathUnits="userSpaceOnUse"
       id="clipPath13"><path
         d="M 0,1350 H 1080 V 0 H 0 Z"
         transform="translate(-541.23391,-447.76854)"
         id="path13" /></clipPath><clipPath
       clipPathUnits="userSpaceOnUse"
       id="clipPath15"><path
         d="M 0,1350 H 1080 V 0 H 0 Z"
         transform="translate(-539.99981,-400.65061)"
         id="path15" /></clipPath></defs><path
     id="polygon3"
     style="fill:#22a1d3;stroke-width:0.341587"
     d="m 170.67026,58.17526 c -8.33362,-0.61955 -26.85275,-2.58571 -26.85275,-2.58571 l -0.17139,12.6165 c 0,0 19.45394,-2.32483 27.67349,-3.23744 2.25083,-0.24991 3.09666,-6.51486 -0.64935,-6.79335 z"
     sodipodi:nodetypes="sccss" /><g
     id="g6"
     transform="matrix(0.24019625,0.23708261,-0.24670786,0.24226764,-94.60142,-18.658896)">
	<path
   style="fill:#84badc;fill-opacity:1"
   d="m 597.47533,-58.961947 c -4.965,4.965 -10.226,9.464 -15.712,13.498 -0.91,0.67 -1.826,1.333 -2.758,1.982 -7.891,5.494 -16.228,10.049 -24.866,13.681 -1.015,0.423 -2.038,0.84 -3.061,1.242 -2.045,0.804 -4.104,1.551 -6.185,2.249 -1.566,0.522 -3.131,1.016 -4.697,1.481 -1.58,0.465 -3.152,0.896 -4.739,1.312 -1.587,0.402 -3.18,0.782 -4.774,1.135 -1.058,0.225 -2.13,0.451 -3.195,0.656 -1.608,0.311 -3.216,0.593 -4.824,0.846 -1.079,0.162 -2.151,0.318 -3.223,0.459 -0.543,0.077 -1.079,0.148 -1.615,0.205 -1.086,0.127 -2.165,0.246 -3.244,0.353 -4.323,0.416 -8.66,0.62 -12.997,0.614 -35.007,0 -70.008,-13.463 -96.566,-40.402 -0.445,-0.445 -0.881,-0.896 -1.312,-1.354 -0.593,-0.606 -1.171,-1.227 -1.742,-1.854 -0.135,-0.135 -0.254,-0.268 -0.381,-0.409 -0.254,-0.268 -0.494,-0.536 -0.74,-0.811 -1.601,-1.77 -3.138,-3.576 -4.619,-5.409 l -0.014,-0.014 c -42.094,-51.968003 -40.12,-128.612003 6.587,-178.224003 27.271,-28.964 64.035,-43.202 100.636,-42.694 46.178,0.62 91.164,-11.502 130.444,-34.281 l 37.716,37.716 c -22.716,39.626 -34.584,85.064 -34.408,131.644 0.127,34.863 -13.103,69.772003 -39.711,96.379003"
   id="path1-2" />
	
	
	
		<rect
   x="-280.01978"
   y="659.71387"
   transform="rotate(-135)"
   style="fill:#22a1d3;stroke-width:0.99999"
   width="69.66433"
   height="37.218643"
   id="rect3" />
	
	
	
	
		
	
		
<path
   style="fill:#ffffff;fill-opacity:1;stroke-width:0.307804"
   id="path1"
   transform="matrix(0.7147136,-0.69941724,0.7164992,0.69758792,0,0)"
   sodipodi:type="arc"
   sodipodi:cx="454.10995"
   sodipodi:cy="236.52345"
   sodipodi:rx="133.04085"
   sodipodi:ry="138.97433"
   sodipodi:start="0"
   sodipodi:end="6.2745843"
   sodipodi:open="true"
   sodipodi:arc-type="arc"
   d="M 587.1508,236.52345 A 133.04085,138.97433 0 0 1 454.39603,375.49747 133.04085,138.97433 0 0 1 321.07034,237.12111 133.04085,138.97433 0 0 1 453.25175,97.55201 133.04085,138.97433 0 0 1 587.14588,235.32815" /></g><g
     inkscape:label="Layer 1"
     inkscape:groupmode="layer"
     id="layer1"><path
       id="path2"
       d="m 0,0 h -27.971 -2.889 v 12.57 44.056 c 0,13.109 -0.005,26.218 0.002,39.328 0.532,0.322 1.215,0.065 1.765,-0.224 4.263,-2.236 7.476,-6.082 9.961,-10.205 2.981,-4.945 5.593,-10.333 7.824,-15.656 4.522,-10.79 7.352,-22.184 8.96,-33.757 C -1.917,33.01 0.69,0 0,0 m -30.366,138.746 c -7.52,6.911 -10.77,11.107 -25.535,21.133 v -342.873 l 25.041,15.41 V -25.041 H 0 c 0.598,-27.086 -11.875,-51.153 -20.934,-75.686 l 18.045,-18.664 C 50.83,-36.914 40.87,73.286 -30.366,138.746"
       style="fill:#030303;fill-opacity:1;fill-rule:nonzero;stroke:none"
       transform="matrix(0.15764051,0,0,-0.15764051,89.394216,60.80364)"
       clip-path="url(#clipPath3)" /><path
       id="path4"
       d="M 0,0 -5.613,-101.21 H -7.935 L -12.386,0 -24.496,152.659 c -11.755,2.077 -23.853,3.164 -36.204,3.164 -0.54,0 -1.075,-0.016 -1.614,-0.02 v -413.046 l 5.142,-0.348 c 6.16,0.103 12.256,0.468 18.274,1.098 v 181.214 l -1.934,139.72 h 2.322 L -20.418,-253.7 c 9.422,1.861 18.612,4.362 27.527,7.456 L 24.964,64.441 h 2.322 L 25.35,-75.279 24.659,-239.242 c 8.07,3.663 15.857,7.838 23.333,12.469 v 351.734 c -11.551,7.154 -23.855,13.205 -36.773,17.999 z"
       style="fill:#030303;fill-opacity:1;fill-rule:nonzero;stroke:none"
       transform="matrix(0.15764051,0,0,-0.15764051,71.437621,54.24643)"
       clip-path="url(#clipPath5)" /><path
       id="path6"
       d="m 0,0 v 39.2 c -22.351,28.218 -37.543,60.824 -39.525,97.473 H 0 v 25.041 h -39.525 c -0.213,33.875 13.823,69.317 33.866,96.157 0.977,1.308 3.069,3.587 5.659,6.3 v 39.985 C -89.732,225.43 -89.748,78.693 0,0"
       style="fill:#030303;fill-opacity:1;fill-rule:nonzero;stroke:none"
       transform="matrix(0.15764051,0,0,-0.15764051,39.864321,86.2699)"
       clip-path="url(#clipPath7)" /><path
       id="path8"
       d="m 0,0 c 5.842,1.138 13.667,2.274 21.615,2.274 v 27.223 c -19.946,0 -38.369,-5.466 -39.144,-5.699 l -9.695,-2.913 v -397.928 l 10.901,-2.215 c 14.38,-2.922 32.634,-6.406 37.938,-6.406 v 27.224 c 0.07,0.003 0.141,0 0.226,-0.005 -2.369,0.124 -11.773,1.778 -21.841,3.711 v 158.476 h 24.457 v 27.224 H 0 Z"
       style="fill:#030303;fill-opacity:1;fill-rule:nonzero;stroke:none"
       transform="matrix(0.15764051,0,0,-0.15764051,57.148402,34.332304)"
       clip-path="url(#clipPath9)" /><path
       id="path10"
       d="m 0,0 -19.873,156.313 c -6.964,-4.197 -13.657,-8.795 -20.054,-13.758 v -326.847 c 5.996,-4.652 12.253,-8.985 18.749,-12.966 l 0.963,187.506 17.964,-197.786 c 6.765,-3.228 13.734,-6.093 20.88,-8.583 V 174.384 C 12.25,172.161 6.014,169.635 -0.064,166.821 Z"
       style="fill:#030303;fill-opacity:1;fill-rule:nonzero;stroke:none"
       transform="matrix(0.15764051,0,0,-0.15764051,48.204716,58.98159)"
       clip-path="url(#clipPath11)" /><path
       id="path12"
       d="m 0,0 c -125.399,0 -227.418,102.019 -227.418,227.418 0,125.4 102.019,227.419 227.418,227.419 125.399,0 227.419,-102.019 227.419,-227.419 C 227.419,102.019 125.399,0 0,0 M 180.06,407.478 C 131.964,455.573 68.018,482.06 0,482.06 c -68.017,0 -131.963,-26.487 -180.059,-74.582 -48.096,-48.096 -74.583,-112.042 -74.583,-180.06 0,-68.017 26.487,-131.963 74.583,-180.059 C -131.963,-0.736 -68.017,-27.224 0,-27.224 c 68.018,0 131.964,26.488 180.06,74.583 48.095,48.096 74.583,112.042 74.583,180.059 0,68.018 -26.488,131.964 -74.583,180.06"
       style="fill:#84badc;fill-opacity:1;fill-rule:nonzero;stroke:none"
       transform="matrix(0.15764051,0,0,-0.15764051,61.764186,97.91977)"
       clip-path="url(#clipPath13)" /><path
       id="path14"
       d="m 0,0 c -151.277,0 -274.349,123.073 -274.349,274.349 0,151.277 123.072,274.35 274.349,274.35 151.277,0 274.35,-123.073 274.35,-274.35 C 274.35,123.073 151.277,0 0,0 M 213.245,487.594 C 156.284,544.554 80.553,575.922 0,575.922 c -80.553,0 -156.284,-31.368 -213.244,-88.328 -56.96,-56.96 -88.329,-132.691 -88.329,-213.245 0,-80.553 31.369,-156.284 88.329,-213.244 56.96,-56.96 132.691,-88.329 213.244,-88.329 80.553,0 156.284,31.369 213.245,88.329 56.959,56.96 88.328,132.691 88.328,213.244 0,80.554 -31.369,156.285 -88.328,213.245"
       style="fill:#84badc;fill-opacity:1;fill-rule:nonzero;stroke:none"
       transform="matrix(0.15948491,0,0,-0.15856271,62.125858,105.32236)"
       clip-path="url(#clipPath15)" /></g></svg>
